<?xml version="1.0" standalone="no"?>
<!DOCTYPE svg PUBLIC "-//W3C//DTD SVG 20010904//EN"
 "http://www.w3.org/TR/2001/REC-SVG-20010904/DTD/svg10.dtd">
<svg version="1.0" xmlns="http://www.w3.org/2000/svg"
 width="164.000000pt" height="36.000000pt" viewBox="0 0 164.000000 36.000000"
 preserveAspectRatio="xMidYMid meet">

<g transform="translate(0.000000,36.000000) scale(0.100000,-0.100000)"
fill="#000000" stroke="none">
<path d="M12 348 c-8 -8 -12 -49 -12 -117 0 -132 19 -179 84 -210 53 -26 79
-26 132 0 65 31 84 78 84 211 0 81 -3 108 -15 118 -25 21 -46 5 -39 -29 7 -35
-3 -39 -96 -43 -47 -3 -55 -6 -55 -23 0 -17 8 -21 56 -25 36 -3 65 -12 78 -24
28 -25 28 -79 1 -106 -18 -18 -31 -20 -103 -18 -65 2 -82 6 -82 18 0 11 17 16
72 20 79 5 105 19 83 45 -8 9 -29 15 -59 15 -76 0 -116 52 -87 111 24 48 -8
91 -42 57z"/>
<path d="M380 205 c0 -62 22 -95 65 -95 43 0 65 33 65 95 0 42 -3 55 -15 55
-11 0 -15 -12 -15 -44 0 -59 -8 -76 -35 -76 -27 0 -35 17 -35 76 0 32 -4 44
-15 44 -12 0 -15 -13 -15 -55z"/>
<path d="M540 185 c0 -60 3 -75 15 -75 11 0 15 12 15 43 l1 42 37 -42 c54 -61
62 -57 62 32 0 59 -3 75 -14 75 -11 0 -16 -14 -18 -46 l-3 -47 -33 47 c-49 68
-62 62 -62 -29z"/>
<path d="M700 205 c0 -64 22 -95 68 -95 44 0 62 27 62 93 0 44 -3 57 -15 57
-11 0 -15 -12 -15 -44 0 -57 -8 -76 -31 -76 -24 0 -39 30 -39 79 0 30 -4 41
-15 41 -12 0 -15 -13 -15 -55z"/>
<path d="M860 185 c0 -60 3 -75 15 -75 8 0 15 9 15 20 0 27 36 27 50 0 6 -11
20 -20 31 -20 18 0 18 2 5 23 -13 19 -13 25 0 41 32 44 -2 86 -71 86 l-45 0 0
-75z m85 20 c0 -14 -8 -21 -27 -23 -24 -3 -28 0 -28 23 0 23 4 26 28 23 19 -2
27 -9 27 -23z"/>
<path d="M1020 245 c-19 -23 -7 -49 28 -61 41 -13 56 -28 48 -50 -5 -13 -15
-15 -48 -11 -27 4 -37 2 -27 -4 22 -14 65 -11 79 6 19 23 7 49 -28 61 -41 13
-56 28 -48 49 5 13 15 16 40 13 19 -2 32 0 30 4 -9 14 -61 9 -74 -7z"/>
<path d="M1143 185 c0 -44 2 -63 4 -42 l4 37 49 0 49 0 4 -37 c2 -21 4 -2 4
42 0 44 -2 63 -4 43 l-4 -38 -49 0 -49 0 -4 38 c-2 20 -4 1 -4 -43z"/>
<path d="M1315 235 c-14 -13 -25 -36 -25 -50 0 -33 42 -75 75 -75 33 0 75 42
75 75 0 33 -42 75 -75 75 -14 0 -37 -11 -50 -25z m95 -5 c40 -40 11 -110 -45
-110 -32 0 -65 33 -65 65 0 14 9 34 20 45 11 11 31 20 45 20 14 0 34 -9 45
-20z"/>
<path d="M1471 183 c1 -43 4 -66 6 -50 4 24 9 27 42 27 42 0 61 14 61 46 0 34
-27 54 -71 54 l-39 0 1 -77z m93 45 c17 -27 -5 -52 -48 -56 l-36 -3 0 41 0 41
36 -3 c22 -2 42 -10 48 -20z"/>
<path d="M1604 139 c-10 -17 13 -36 27 -22 12 12 4 33 -11 33 -5 0 -12 -5 -16
-11z"/>
</g>
</svg>
