<?xml version="1.0" encoding="utf-8"?>
<!-- Generator: Adobe Illustrator 23.0.5, SVG Export Plug-In . SVG Version: 6.00 Build 0)  -->
<svg version="1.1" id="Layer_1" xmlns="http://www.w3.org/2000/svg" xmlns:xlink="http://www.w3.org/1999/xlink" x="0px" y="0px"
	 viewBox="0 0 792 612" style="enable-background:new 0 0 792 612;" xml:space="preserve">
<style type="text/css">
	.st0{fill:#BC2026;}
</style>
<g>
	<g>
		<path d="M236.9,309.4v-28.8h11.9V309c0,9.8,4.3,13.8,11.4,13.8c7.3,0,11.4-4.1,11.4-13.8v-28.4h11.7v28.8
			c0,15.1-8.7,23.5-23.3,23.5C245.6,332.9,236.9,324.5,236.9,309.4"/>
		<polygon points="342.4,280.5 342.4,332 332.7,332 307,300.8 307,332 295.2,332 295.2,280.5 305.1,280.5 330.7,311.8 330.7,280.5 
					"/>
		<path d="M354.2,309.4v-28.8h11.9V309c0,9.8,4.3,13.8,11.4,13.8c7.3,0,11.4-4.1,11.4-13.8v-28.4h11.7v28.8
			c0,15.1-8.7,23.5-23.3,23.5C362.8,332.9,354.2,324.5,354.2,309.4"/>
		<path d="M445.3,332l-10-14.3h-0.6h-10.3V332h-11.9v-51.5h22.3c13.7,0,22.3,7.2,22.3,18.7c0,7.8-3.9,13.3-10.5,16.2l11.5,16.5
			L445.3,332L445.3,332z M434.2,290.3h-9.7v17.9h9.7c7.3,0,10.9-3.4,10.9-9C445.1,293.6,441.4,290.3,434.2,290.3"/>
		<path d="M464.2,325.4l1.7-2.8c3.5,3.7,10.1,6.5,17,6.5c10.3,0,14.8-4.5,14.8-10.1c0-15.4-32.1-6.2-32.1-25.2
			c0-7.3,5.6-13.6,18.2-13.6c5.7,0,11.5,1.8,15.5,4.7l-1.4,3c-4.3-3-9.5-4.4-14.1-4.4c-10,0-14.4,4.7-14.4,10.3
			c0,15.4,32.1,6.4,32.1,25c0,7.3-5.8,13.6-18.5,13.6C475.3,332.4,467.9,329.5,464.2,325.4"/>
		<polygon points="556.1,280.5 556.1,332 552.3,332 552.3,307.5 517.9,307.5 517.9,332 514.2,332 514.2,280.5 517.9,280.5 
			517.9,304.2 552.3,304.2 552.3,280.5 		"/>
		<path d="M569,306.3c0-14.9,11.3-26.1,26.8-26.1c15.3,0,26.8,11,26.8,26.1s-11.4,26.1-26.8,26.1S569,321.2,569,306.3 M618.8,306.3
			c0-13-9.9-22.6-22.9-22.6c-13.1,0-23,9.7-23,22.6c0,13,9.9,22.6,23,22.6C608.9,328.9,618.8,319.3,618.8,306.3"/>
		<path d="M674.7,297.9c0,10.8-7.8,17.3-20.7,17.3h-14.7v16.8h-3.7v-51.5H654C666.9,280.6,674.7,287,674.7,297.9 M670.9,297.9
			c0-8.9-5.9-13.9-16.9-13.9h-14.7v27.9H654C665,311.8,670.9,306.7,670.9,297.9"/>
		<path class="st0" d="M681.7,325.4c0-4.3,3.2-7.1,7.2-7.1c4,0,7.2,2.8,7.2,7.1c0,4.2-3.2,7.2-7.2,7.2
			C684.8,332.6,681.7,329.6,681.7,325.4"/>
	</g>
	<path class="st0" d="M192.7,241.1c-6.1,0-11.2,4.5-12.1,10.3c4.2,0.4,7.5,3.9,7.5,8.2v0.1c0,4.6-3.7,8.3-8.3,8.3h-40.4
		c-5.8,0-10.5,4.7-10.5,10.5c0,5.8,4.7,10.5,10.5,10.5H161c7.3,0,14,2.8,19.1,8c5.1,5.1,8,12,8,19.1c0,7.3-2.8,14-8,19.1
		c-5.1,5.1-12,8-19.1,8h-40.5c-4.6,0-8.3-3.7-8.3-8.3v0c0-4.6,3.7-8.3,8.3-8.3H161c5.8,0,10.5-4.7,10.5-10.5s-4.7-10.5-10.5-10.5
		h-21.6c-7.3,0-14-2.8-19.1-8c-5.1-5.1-8-12-8-19.1c0-7.3,2.8-14,8-19.1c0.1-0.1,0.2-0.2,0.3-0.3v-5.8c0-6.8-5.5-12.3-12.3-12.3
		S96,246.5,96,253.3v7.8v6v49.5c0,29.9,24.5,54.5,54.5,54.5l0,0c29.9,0,54.5-24.5,54.5-54.5V267v-6v-7.8
		C204.9,246.6,199.4,241.1,192.7,241.1"/>
</g>
</svg>
