<svg xmlns="http://www.w3.org/2000/svg" width="164" height="36" viewBox="0 0 164 36">
  <defs>
    <style>
      .cls-1 {
        fill: #1a1818;
      }

      .cls-2 {
        fill: #ab0b1b;
      }
    </style>
  </defs>
  <g id="ushop-logo" transform="translate(-121 -1059.103)">
    <g id="Group_770" data-name="Group 770" transform="translate(159.002 1069.103)">
      <path id="Path_210" data-name="Path 210" class="cls-1" d="M644.385,566.206v-8.258h3.322v8.132c0,2.8,1.189,3.961,3.2,3.961,2.03,0,3.2-1.159,3.2-3.961v-8.132h3.281v8.258c0,4.34-2.42,6.742-6.5,6.742S644.385,570.547,644.385,566.206Z" transform="translate(-644.385 -557.847)"/>
      <path id="Path_211" data-name="Path 211" class="cls-1" d="M716.015,557.948v15h-2.693l-7.067-9.107v9.107h-3.24v-15h2.714l7.047,9.107v-9.107Z" transform="translate(-687.009 -557.847)"/>
      <path id="Path_212" data-name="Path 212" class="cls-1" d="M762.234,566.206v-8.258h3.322v8.132c0,2.8,1.189,3.961,3.2,3.961,2.03,0,3.2-1.159,3.2-3.961v-8.132h3.281v8.258c0,4.34-2.419,6.742-6.5,6.742S762.234,570.547,762.234,566.206Z" transform="translate(-730.092 -557.847)"/>
      <path id="Path_213" data-name="Path 213" class="cls-1" d="M830.214,572.948l-2.831-4.179h-3.124v4.179h-3.4v-15h6.353c3.921,0,6.374,2.078,6.374,5.443a4.88,4.88,0,0,1-3.019,4.736l3.292,4.821Zm-3.187-12.172h-2.768v5.229h2.768c2.076,0,3.124-.985,3.124-2.614C830.151,561.741,829.1,560.776,827.027,560.776Z" transform="translate(-772.729 -557.847)"/>
      <path id="Path_214" data-name="Path 214" class="cls-1" d="M872.77,570.571l.5-.8a7.333,7.333,0,0,0,5.012,1.859c3.037,0,4.382-1.289,4.382-2.895,0-4.437-9.481-1.774-9.481-7.225,0-2.091,1.649-3.929,5.381-3.929a8.306,8.306,0,0,1,4.578,1.331l-.412.866a7.65,7.65,0,0,0-4.166-1.247c-2.951,0-4.274,1.331-4.274,2.958,0,4.437,9.481,1.817,9.481,7.183,0,2.091-1.714,3.908-5.468,3.908A7.9,7.9,0,0,1,872.77,570.571Z" transform="translate(-810.479 -557.578)"/>
      <path id="Path_215" data-name="Path 215" class="cls-1" d="M934.982,557.948v15h-1.074v-7.136h-9.853v7.136h-1.073v-15h1.073v6.9h9.853v-6.9Z" transform="translate(-846.996 -557.847)"/>
      <path id="Path_216" data-name="Path 216" class="cls-1" d="M978.139,565.078a7.5,7.5,0,1,1,7.5,7.5A7.31,7.31,0,0,1,978.139,565.078Zm13.929,0a6.439,6.439,0,1,0-6.429,6.507A6.307,6.307,0,0,0,992.068,565.078Z" transform="translate(-887.126 -557.578)"/>
      <path id="Path_217" data-name="Path 217" class="cls-1" d="M1055.958,563.005c0,3.15-2.187,5.036-5.818,5.036h-4.126v4.907h-1.052v-15h5.178C1053.772,557.948,1055.958,559.833,1055.958,563.005Zm-1.073,0c0-2.593-1.65-4.072-4.745-4.072h-4.126v8.121h4.126C1053.236,567.055,1054.886,565.576,1054.886,563.005Z" transform="translate(-935.707 -557.847)"/>
    </g>
    <path id="Path_218" data-name="Path 218" class="cls-2" d="M1091.261,597.881a2,2,0,0,1,4,0,2,2,0,1,1-4,0Z" transform="translate(-810.261 484.433)"/>
    <path id="Path_219" data-name="Path 219" class="cls-2" d="M529.429,517.426a3.385,3.385,0,0,0-3.324,2.862,2.294,2.294,0,0,1,2.061,2.288v.027a2.293,2.293,0,0,1-2.286,2.3H514.741a2.9,2.9,0,0,0,0,5.8H520.7a7.408,7.408,0,0,1,5.286,2.209,7.534,7.534,0,0,1,0,10.632,7.409,7.409,0,0,1-5.286,2.208H509.559a2.292,2.292,0,0,1-2.286-2.3v-.027a2.292,2.292,0,0,1,2.286-2.3H520.7a2.9,2.9,0,0,0,0-5.8h-5.957a7.408,7.408,0,0,1-5.286-2.208,7.533,7.533,0,0,1,0-10.632c.027-.027.055-.052.082-.078v-1.592a3.389,3.389,0,0,0-3.369-3.389h0a3.389,3.389,0,0,0-3.369,3.389V538.34a15.087,15.087,0,0,0,15,15.086h0a15.087,15.087,0,0,0,15-15.086V520.815A3.389,3.389,0,0,0,529.429,517.426Z" transform="translate(-381.798 541.677)"/>
  </g>
</svg>
