<svg xmlns="http://www.w3.org/2000/svg" width="42" height="42" viewBox="0 0 42 42">
  <defs>
    <style>
      .cls-1 {
        fill: #1a1818;
      }

      .cls-2 {
        fill: #ab0b1b;
      }
    </style>
  </defs>
  <g id="ushop-logo" transform="translate(-121 -1059.103)">
    <path id="Path_219" data-name="Path 219" class="cls-2" d="M529.429,517.426a3.385,3.385,0,0,0-3.324,2.862,2.294,2.294,0,0,1,2.061,2.288v.027a2.293,2.293,0,0,1-2.286,2.3H514.741a2.9,2.9,0,0,0,0,5.8H520.7a7.408,7.408,0,0,1,5.286,2.209,7.534,7.534,0,0,1,0,10.632,7.409,7.409,0,0,1-5.286,2.208H509.559a2.292,2.292,0,0,1-2.286-2.3v-.027a2.292,2.292,0,0,1,2.286-2.3H520.7a2.9,2.9,0,0,0,0-5.8h-5.957a7.408,7.408,0,0,1-5.286-2.208,7.533,7.533,0,0,1,0-10.632c.027-.027.055-.052.082-.078v-1.592a3.389,3.389,0,0,0-3.369-3.389h0a3.389,3.389,0,0,0-3.369,3.389V538.34a15.087,15.087,0,0,0,15,15.086h0a15.087,15.087,0,0,0,15-15.086V520.815A3.389,3.389,0,0,0,529.429,517.426Z" transform="translate(-381.798 541.677)"/>
  </g>
</svg>
